<svg xmlns="http://www.w3.org/2000/svg" width="200" height="200" viewBox="0 0 200 200">
  <!-- тиснение фирменным знаком: тень + блик + заливка цветом фона -->
  <defs><path id="m" fill-rule="evenodd" clip-rule="evenodd" d="M202.512 1.11193C165.284 4.92153 130.844 17.2072 100.795 37.3979C83.3031 49.1507 63.1518 67.6564 50.3691 83.7036C11.8013 132.123 -5.64525 192.148 1.60959 251.465C2.96772 262.568 4.40107 270.527 6.71047 279.786C26.8482 360.529 90.7077 424.386 171.216 444.285C190.97 449.168 198.77 450.013 224.001 450C247.578 449.987 253.097 449.51 270.92 445.942C313.871 437.342 353.261 416.277 384.143 385.391C417.018 352.513 438.4 311.854 446.729 266.387C450.974 243.214 451.096 212.381 447.043 187.491C434.195 108.594 378.03 41.0028 302.437 13.4673C271.347 2.1419 235.618 -2.27534 202.512 1.11193ZM211.465 40.2832C201.018 41.2399 186.412 43.651 176.847 45.999C103.851 63.9179 52.9529 120.543 42.105 195.899C36.4211 235.383 42.6723 275.584 59.9498 310.671C69.6745 330.418 80.223 345.015 95.5127 359.88C122.997 386.601 156.734 402.607 198.532 408.759C243.445 415.369 289.191 404.507 329.298 377.711C373.885 347.921 403.256 301.301 409.542 250.338C410.78 240.3 410.576 210.995 409.197 200.807C404.719 167.729 393.602 139.955 374.396 113.87C345.996 75.295 301.481 48.7693 252.654 41.3232C243.584 39.9398 221.348 39.3789 211.465 40.2832ZM225.434 81.5517C199.202 82.7023 195.961 82.9767 191.056 84.4649C186.203 85.9366 181.546 90.31 180.392 94.4795C178.874 99.9647 179.848 116.472 183.912 154.124C185.529 169.107 186.088 177.331 185.909 183.54C185.635 193.128 184.871 195.273 180.711 198.131C175.645 201.612 172.097 201.83 120.279 201.844C67.4432 201.857 69.0578 201.729 66.8028 206.102C65.267 209.078 65.0658 211.37 64.2692 234.895C63.8745 246.549 63.1718 262.599 62.7069 270.561C61.9197 284.053 61.9491 285.172 63.1331 286.984C64.8731 289.648 65.9289 289.405 85.1441 281.938C144.385 258.917 179.881 245.589 183.109 245.156C189.162 244.341 193.199 248.316 193.199 255.089C193.199 258.131 192.457 260.814 179.221 305.643C162.052 363.788 162.247 362.899 165.174 369.531C166.329 372.151 167.045 372.829 169.319 373.462C172.799 374.431 191.755 374.452 208.958 373.506C242.715 371.65 257.933 368.54 260.785 362.916C262.284 359.96 263.631 344.847 265.921 305.284C267.571 276.789 269.059 257.249 269.897 253.076C270.884 248.159 273.214 244.798 276.356 243.759C277.813 243.277 288.681 242.591 302.117 242.132C339.166 240.867 360.802 239.884 366.039 239.225C371.507 238.538 373.828 237.304 375.953 233.959C377.551 231.442 377.553 235.046 375.932 190.723C375.398 176.097 375.027 174.543 371.217 170.974C368.542 168.468 361.129 168.181 350.072 170.154C342.492 171.506 335.061 172.592 312.824 175.596C285.281 179.316 282.802 179.38 276.119 176.548C269.592 173.782 265.547 166.893 265.547 158.541C265.547 153.941 268.172 141.103 272.698 123.566C277.129 106.4 280.59 90.9177 280.59 88.2659C280.59 85.6069 279.392 83.1318 277.495 81.8691C275.376 80.4592 253.38 80.3249 225.434 81.5517ZM227.673 168.828C225.088 169.428 221.935 172.324 206.188 188.561C180.396 215.155 177.331 218.021 168.128 224.142C163.204 227.418 158.933 230.451 158.638 230.881C157.769 232.149 158.334 233.573 160.286 235.032C162.05 236.352 162.391 236.359 169.956 235.244C174.269 234.609 179.41 233.354 181.38 232.455C183.35 231.556 188.669 227.81 193.199 224.132C207.049 212.887 213.574 209.288 223.285 207.54C225.845 207.08 235.355 206.662 244.416 206.613C257.711 206.542 261.91 206.763 266.168 207.76C273.745 209.535 282.225 213.911 288.502 219.286C296.669 226.278 297.013 226.381 305.946 224.484C311.622 223.278 313.54 221.883 313.54 218.961C313.54 216.583 313.611 216.632 278.441 194.548C252.765 178.424 239.609 170.427 237.446 169.626C234.688 168.606 230.207 168.24 227.673 168.828ZM227.107 185.962C225.545 187.096 223.194 189.383 221.884 191.043C219.654 193.865 219.578 194.137 220.701 195.264C222.331 196.9 232.213 197.251 244.178 196.098C257.345 194.829 258.279 192.974 248.001 188.498C236.006 183.277 231.549 182.735 227.107 185.962Z"/></defs>
  <rect width="200" height="200" fill="#f4f4f2"/>
  <use href="#m" transform="translate(3.6 3.6) scale(0.213)" fill="rgba(0,0,0,0.10)"/>
  <use href="#m" transform="translate(0.3999999999999999 0.3999999999999999) scale(0.213)" fill="#ffffff"/>
  <use href="#m" transform="translate(2 2) scale(0.213)" fill="#f4f4f2"/>
  <use href="#m" transform="translate(103.6 103.6) scale(0.213)" fill="rgba(0,0,0,0.10)"/>
  <use href="#m" transform="translate(100.4 100.4) scale(0.213)" fill="#ffffff"/>
  <use href="#m" transform="translate(102 102) scale(0.213)" fill="#f4f4f2"/>
</svg>
